<svg id="svg" version="1.1" xmlns="http://www.w3.org/2000/svg" xmlns:xlink="http://www.w3.org/1999/xlink" width="400" height="399.8307952622673" viewBox="0, 0, 400,399.8307952622673"><g id="svgg"><path id="path0" d="M122.130 121.840 C 103.405 123.401,88.457 137.550,85.498 156.514 C 85.028 159.528,85.028 245.548,85.498 248.562 C 88.503 267.818,103.536 281.817,122.758 283.258 C 127.227 283.593,278.048 283.386,280.118 283.042 C 299.208 279.871,312.920 265.724,314.885 247.172 C 315.125 244.905,315.125 160.172,314.885 157.904 C 312.920 139.352,299.208 125.205,280.118 122.034 C 278.262 121.726,125.749 121.539,122.130 121.840 M209.527 187.646 C 224.482 195.416,236.717 201.814,236.717 201.863 C 236.717 201.913,223.796 208.843,208.003 217.263 C 192.210 225.683,178.457 233.015,177.441 233.557 L 175.593 234.543 175.704 203.185 C 175.765 185.938,175.858 171.468,175.909 171.029 L 176.003 170.231 179.170 171.875 C 180.912 172.780,194.572 179.877,209.527 187.646 " stroke="none" fill="#fbfbfb" fill-rule="evenodd"></path><path id="path1" d="M189.932 0.345 C 165.875 1.640,142.044 7.164,121.320 16.250 C 120.436 16.638,119.294 17.130,118.782 17.345 C 118.270 17.560,116.557 18.361,114.975 19.124 C 113.393 19.888,111.413 20.843,110.575 21.247 C 108.851 22.077,105.562 23.812,103.299 25.084 C 102.462 25.555,101.434 26.132,101.015 26.365 C 97.832 28.140,90.432 32.779,87.613 34.767 C 87.081 35.142,85.939 35.940,85.075 36.542 C 72.276 45.445,59.471 57.078,48.469 69.798 C 40.421 79.104,31.646 91.581,26.099 101.607 C 25.635 102.445,25.106 103.397,24.922 103.723 C 22.481 108.050,18.900 115.313,16.912 119.966 C 14.729 125.075,13.861 127.240,12.413 131.188 C -3.807 175.400,-3.807 224.600,12.413 268.812 C 13.861 272.760,14.729 274.925,16.912 280.034 C 18.625 284.044,21.524 290.010,23.879 294.373 C 28.650 303.211,33.784 311.292,39.441 318.866 C 44.003 324.975,46.173 327.636,51.517 333.670 C 53.439 335.840,62.285 344.803,64.636 346.962 C 71.154 352.948,78.567 358.931,85.075 363.458 C 85.939 364.060,87.081 364.858,87.613 365.233 C 90.298 367.126,100.913 373.773,101.252 373.773 C 101.281 373.773,101.944 374.140,102.725 374.589 C 106.445 376.726,114.982 381.018,118.613 382.575 C 119.217 382.835,120.436 383.364,121.320 383.751 C 140.197 392.015,162.234 397.484,183.672 399.227 C 193.967 400.064,209.661 399.994,218.528 399.072 C 243.234 396.501,262.415 391.340,284.264 381.382 C 286.565 380.334,294.735 376.177,296.513 375.150 C 297.341 374.672,298.041 374.281,298.069 374.281 C 298.174 374.281,302.049 371.985,304.569 370.429 C 308.478 368.016,314.385 364.091,316.836 362.279 C 323.880 357.069,327.865 353.869,333.160 349.170 C 337.491 345.327,343.852 339.026,347.885 334.583 C 348.397 334.020,349.086 333.260,349.417 332.896 C 353.381 328.534,359.509 320.831,363.203 315.567 C 363.758 314.776,364.533 313.672,364.926 313.113 C 370.300 305.466,378.093 291.755,381.851 283.333 C 383.469 279.708,383.514 279.605,385.286 275.387 C 390.180 263.736,394.431 248.935,397.048 234.433 C 397.410 232.431,398.422 225.296,398.717 222.673 C 400.637 205.605,400.354 188.215,397.877 170.981 C 395.628 155.337,390.939 138.070,385.286 124.613 C 383.508 120.382,383.351 120.017,381.849 116.667 C 378.004 108.086,370.313 94.553,364.926 86.887 C 364.533 86.328,363.758 85.224,363.203 84.433 C 359.509 79.169,353.381 71.466,349.417 67.104 C 349.086 66.740,348.397 65.980,347.885 65.417 C 339.747 56.453,330.126 47.687,320.474 40.442 C 315.464 36.682,315.050 36.389,310.321 33.256 C 306.422 30.672,298.370 25.719,298.069 25.719 C 298.041 25.719,297.341 25.328,296.513 24.849 C 294.774 23.843,286.632 19.703,284.264 18.620 C 261.017 7.989,239.441 2.492,213.113 0.491 C 210.065 0.260,193.465 0.155,189.932 0.345 M278.983 121.836 C 297.467 123.833,311.961 137.849,314.843 156.514 C 315.308 159.524,315.308 245.552,314.843 248.562 C 312.139 266.077,299.262 279.529,282.064 282.805 C 278.749 283.437,278.843 283.436,198.816 283.378 L 120.728 283.320 118.782 282.943 C 100.421 279.383,87.525 265.706,85.246 247.377 C 84.922 244.768,84.922 160.308,85.246 157.699 C 87.652 138.347,102.455 123.741,121.658 121.773 C 123.251 121.610,277.460 121.671,278.983 121.836 M176.806 172.012 C 176.337 172.576,176.088 232.413,176.554 232.754 C 177.018 233.094,176.498 233.361,205.995 217.621 C 235.429 201.915,234.786 202.272,234.616 201.736 C 234.475 201.291,235.225 201.689,204.651 185.818 C 176.599 171.256,177.191 171.549,176.806 172.012 " stroke="none" fill="#d3131b" fill-rule="evenodd"></path><path id="path2" d="M122.885 121.775 C 123.048 121.817,123.314 121.817,123.477 121.775 C 123.640 121.732,123.507 121.697,123.181 121.697 C 122.855 121.697,122.722 121.732,122.885 121.775 M276.779 121.778 C 276.989 121.818,277.294 121.817,277.455 121.774 C 277.617 121.732,277.445 121.699,277.073 121.701 C 276.701 121.703,276.568 121.737,276.779 121.778 M301.523 131.863 C 301.523 131.893,301.770 132.140,302.073 132.413 L 302.623 132.910 302.126 132.360 C 301.662 131.848,301.523 131.733,301.523 131.863 M96.865 133.545 L 95.685 134.772 96.912 133.592 C 98.051 132.496,98.216 132.318,98.092 132.318 C 98.066 132.318,97.514 132.870,96.865 133.545 M304.061 134.402 C 304.061 134.431,304.308 134.678,304.611 134.951 L 305.161 135.448 304.664 134.898 C 304.201 134.386,304.061 134.271,304.061 134.402 M314.929 158.376 C 314.929 158.701,314.964 158.835,315.007 158.672 C 315.049 158.509,315.049 158.242,315.007 158.080 C 314.964 157.917,314.929 158.050,314.929 158.376 M85.149 159.222 C 85.149 159.547,85.184 159.681,85.227 159.518 C 85.269 159.355,85.269 159.088,85.227 158.926 C 85.184 158.763,85.149 158.896,85.149 159.222 M315.142 202.538 C 315.142 225.757,315.162 235.256,315.186 223.646 C 315.210 212.037,315.210 193.039,315.186 181.430 C 315.162 169.820,315.142 179.319,315.142 202.538 M175.881 177.834 C 175.881 181.603,175.903 183.145,175.930 181.261 C 175.958 179.376,175.958 176.292,175.930 174.408 C 175.903 172.523,175.881 174.065,175.881 177.834 M175.712 210.068 C 175.712 213.790,175.734 215.289,175.761 213.398 C 175.789 211.507,175.788 208.462,175.761 206.630 C 175.734 204.798,175.712 206.345,175.712 210.068 M85.149 245.854 C 85.149 246.180,85.184 246.313,85.227 246.151 C 85.269 245.988,85.269 245.721,85.227 245.558 C 85.184 245.396,85.149 245.529,85.149 245.854 M314.929 246.701 C 314.929 247.026,314.964 247.159,315.007 246.997 C 315.049 246.834,315.049 246.567,315.007 246.404 C 314.964 246.242,314.929 246.375,314.929 246.701 M304.473 270.262 L 303.976 270.812 304.526 270.315 C 305.039 269.852,305.154 269.712,305.023 269.712 C 304.994 269.712,304.747 269.960,304.473 270.262 M96.870 271.574 C 97.516 272.225,98.083 272.758,98.130 272.758 C 98.176 272.758,97.685 272.225,97.039 271.574 C 96.392 270.922,95.825 270.389,95.779 270.389 C 95.732 270.389,96.223 270.922,96.870 271.574 M301.935 272.800 L 301.438 273.350 301.988 272.853 C 302.501 272.390,302.616 272.250,302.485 272.250 C 302.456 272.250,302.209 272.498,301.935 272.800 M122.885 283.365 C 123.048 283.408,123.314 283.408,123.477 283.365 C 123.640 283.323,123.507 283.288,123.181 283.288 C 122.855 283.288,122.722 283.323,122.885 283.365 M276.779 283.368 C 276.989 283.409,277.294 283.407,277.455 283.365 C 277.617 283.323,277.445 283.290,277.073 283.291 C 276.701 283.293,276.568 283.328,276.779 283.368 " stroke="none" fill="#d4686f" fill-rule="evenodd"></path><path id="path3" d="M85.024 202.538 C 85.024 225.106,85.044 234.338,85.068 223.054 C 85.092 211.770,85.092 193.306,85.068 182.022 C 85.044 170.738,85.024 179.970,85.024 202.538 M175.872 187.225 C 175.872 188.714,175.898 189.301,175.930 188.528 C 175.961 187.756,175.961 186.538,175.929 185.821 C 175.898 185.104,175.872 185.736,175.872 187.225 M175.703 219.374 C 175.703 220.863,175.729 221.449,175.761 220.677 C 175.792 219.905,175.792 218.687,175.760 217.970 C 175.729 217.253,175.703 217.885,175.703 219.374 " stroke="none" fill="#dc343d" fill-rule="evenodd"></path><path id="path4" d="M175.909 190.137 C 175.851 201.006,175.756 215.409,175.698 222.144 C 175.628 230.347,175.650 234.370,175.764 234.327 C 176.214 234.160,236.543 201.935,236.543 201.861 C 236.543 201.793,176.609 170.597,176.147 170.424 C 176.074 170.397,175.967 179.268,175.909 190.137 M204.651 185.818 C 235.225 201.689,234.475 201.291,234.616 201.736 C 234.786 202.272,235.429 201.915,205.995 217.621 C 176.498 233.361,177.018 233.094,176.554 232.754 C 176.088 232.413,176.337 172.576,176.806 172.012 C 177.191 171.549,176.599 171.256,204.651 185.818 " stroke="none" fill="#a20d15" fill-rule="evenodd"></path></g></svg>