<svg id="svg" version="1.1" xmlns="http://www.w3.org/2000/svg" xmlns:xlink="http://www.w3.org/1999/xlink" width="400" height="337.5" viewBox="0, 0, 400,337.5"><g id="svgg"><path id="path0" d="M22.881 1.455 C -6.078 11.485,-8.223 51.525,19.488 64.759 L 25.391 67.578 200.000 67.578 L 374.609 67.578 380.512 64.759 C 406.543 52.327,406.758 15.815,380.876 3.075 L 375.424 0.391 201.188 0.217 C 34.974 0.052,26.766 0.109,22.881 1.455 M26.563 135.439 C -9.460 143.265,-8.583 195.589,27.683 202.271 C 30.944 202.872,82.023 203.125,200.000 203.125 C 317.977 203.125,369.056 202.872,372.317 202.271 C 409.195 195.476,409.195 142.024,372.317 135.229 C 365.407 133.956,32.459 134.158,26.563 135.439 M25.589 270.374 C -4.970 277.623,-9.292 320.438,19.124 334.425 L 24.577 337.109 200.000 337.109 L 375.423 337.109 380.876 334.425 C 406.758 321.685,406.543 285.173,380.512 272.741 L 374.609 269.922 201.563 269.801 C 102.894 269.732,27.258 269.978,25.589 270.374 " stroke="none" fill="#000000" fill-rule="evenodd"></path></g></svg>